<mxfile host="Electron" modified="2024-03-12T06:38:25.565Z" agent="Mozilla/5.0 (Windows NT 10.0; Win64; x64) AppleWebKit/537.36 (KHTML, like Gecko) draw.io/23.1.5 Chrome/120.0.6099.109 Electron/28.1.0 Safari/537.36" etag="FAmmlG9o-GAP71PfjAwg" version="23.1.5" type="device">
  <diagram name="Страница — 1" id="tLZpk_zaxy9XHj5XOfVU">
    <mxGraphModel dx="2013" dy="776" grid="1" gridSize="10" guides="1" tooltips="1" connect="1" arrows="1" fold="1" page="0" pageScale="1" pageWidth="827" pageHeight="1169" math="0" shadow="0">
      <root>
        <mxCell id="0" />
        <mxCell id="1" parent="0" />
        <mxCell id="onemKajRgYSs6eUbvzqO-1" value="Customer&amp;nbsp;&lt;br&gt;&lt;br&gt;&lt;br&gt;&lt;div&gt;&lt;br&gt;&lt;/div&gt;&lt;div&gt;&lt;br&gt;&lt;/div&gt;&lt;div&gt;&lt;br&gt;&lt;/div&gt;" style="shape=umlLifeline;perimeter=lifelinePerimeter;whiteSpace=wrap;html=1;container=1;dropTarget=0;collapsible=0;recursiveResize=0;outlineConnect=0;portConstraint=eastwest;newEdgeStyle={&quot;curved&quot;:0,&quot;rounded&quot;:0};participant=umlActor;" parent="1" vertex="1">
          <mxGeometry x="-110" y="70" width="20" height="300" as="geometry" />
        </mxCell>
        <mxCell id="onemKajRgYSs6eUbvzqO-3" value="LogIn" style="shape=umlLifeline;perimeter=lifelinePerimeter;whiteSpace=wrap;html=1;container=1;dropTarget=0;collapsible=0;recursiveResize=0;outlineConnect=0;portConstraint=eastwest;newEdgeStyle={&quot;curved&quot;:0,&quot;rounded&quot;:0};" parent="1" vertex="1">
          <mxGeometry x="80" y="70" width="100" height="300" as="geometry" />
        </mxCell>
        <mxCell id="onemKajRgYSs6eUbvzqO-74" value="" style="html=1;points=[[0,0,0,0,5],[0,1,0,0,-5],[1,0,0,0,5],[1,1,0,0,-5]];perimeter=orthogonalPerimeter;outlineConnect=0;targetShapes=umlLifeline;portConstraint=eastwest;newEdgeStyle={&quot;curved&quot;:0,&quot;rounded&quot;:0};" parent="onemKajRgYSs6eUbvzqO-3" vertex="1">
          <mxGeometry x="45" y="60" width="10" height="40" as="geometry" />
        </mxCell>
        <mxCell id="onemKajRgYSs6eUbvzqO-5" value="ViewMenu" style="shape=umlLifeline;perimeter=lifelinePerimeter;whiteSpace=wrap;html=1;container=1;dropTarget=0;collapsible=0;recursiveResize=0;outlineConnect=0;portConstraint=eastwest;newEdgeStyle={&quot;curved&quot;:0,&quot;rounded&quot;:0};" parent="1" vertex="1">
          <mxGeometry x="240" y="70" width="100" height="300" as="geometry" />
        </mxCell>
        <mxCell id="onemKajRgYSs6eUbvzqO-75" value="" style="html=1;points=[[0,0,0,0,5],[0,1,0,0,-5],[1,0,0,0,5],[1,1,0,0,-5]];perimeter=orthogonalPerimeter;outlineConnect=0;targetShapes=umlLifeline;portConstraint=eastwest;newEdgeStyle={&quot;curved&quot;:0,&quot;rounded&quot;:0};" parent="onemKajRgYSs6eUbvzqO-5" vertex="1">
          <mxGeometry x="45" y="90" width="10" height="30" as="geometry" />
        </mxCell>
        <mxCell id="onemKajRgYSs6eUbvzqO-6" value="Add Pizza in Cart" style="shape=umlLifeline;perimeter=lifelinePerimeter;whiteSpace=wrap;html=1;container=1;dropTarget=0;collapsible=0;recursiveResize=0;outlineConnect=0;portConstraint=eastwest;newEdgeStyle={&quot;curved&quot;:0,&quot;rounded&quot;:0};" parent="1" vertex="1">
          <mxGeometry x="430" y="70" width="120" height="300" as="geometry" />
        </mxCell>
        <mxCell id="onemKajRgYSs6eUbvzqO-76" value="" style="html=1;points=[[0,0,0,0,5],[0,1,0,0,-5],[1,0,0,0,5],[1,1,0,0,-5]];perimeter=orthogonalPerimeter;outlineConnect=0;targetShapes=umlLifeline;portConstraint=eastwest;newEdgeStyle={&quot;curved&quot;:0,&quot;rounded&quot;:0};" parent="onemKajRgYSs6eUbvzqO-6" vertex="1">
          <mxGeometry x="55" y="120" width="10" height="30" as="geometry" />
        </mxCell>
        <mxCell id="onemKajRgYSs6eUbvzqO-8" value="Delivery or Restaurant&amp;nbsp;" style="shape=umlLifeline;perimeter=lifelinePerimeter;whiteSpace=wrap;html=1;container=1;dropTarget=0;collapsible=0;recursiveResize=0;outlineConnect=0;portConstraint=eastwest;newEdgeStyle={&quot;curved&quot;:0,&quot;rounded&quot;:0};" parent="1" vertex="1">
          <mxGeometry x="640" y="70" width="100" height="300" as="geometry" />
        </mxCell>
        <mxCell id="onemKajRgYSs6eUbvzqO-16" value="get receipt" style="shape=umlLifeline;perimeter=lifelinePerimeter;whiteSpace=wrap;html=1;container=1;dropTarget=0;collapsible=0;recursiveResize=0;outlineConnect=0;portConstraint=eastwest;newEdgeStyle={&quot;curved&quot;:0,&quot;rounded&quot;:0};" parent="1" vertex="1">
          <mxGeometry x="1350" y="65" width="100" height="430" as="geometry" />
        </mxCell>
        <mxCell id="onemKajRgYSs6eUbvzqO-17" value="log in to the app using your account" style="endArrow=block;endFill=1;html=1;edgeStyle=orthogonalEdgeStyle;align=left;verticalAlign=top;rounded=0;entryX=0;entryY=0.028;entryDx=0;entryDy=0;entryPerimeter=0;" parent="1" source="onemKajRgYSs6eUbvzqO-1" target="onemKajRgYSs6eUbvzqO-74" edge="1">
          <mxGeometry x="-0.8959" y="30" relative="1" as="geometry">
            <mxPoint x="-40" y="170" as="sourcePoint" />
            <mxPoint x="80" y="170" as="targetPoint" />
            <Array as="points">
              <mxPoint x="115" y="130" />
            </Array>
            <mxPoint as="offset" />
          </mxGeometry>
        </mxCell>
        <mxCell id="onemKajRgYSs6eUbvzqO-18" value="1" style="edgeLabel;resizable=0;html=1;align=left;verticalAlign=bottom;" parent="onemKajRgYSs6eUbvzqO-17" connectable="0" vertex="1">
          <mxGeometry x="-1" relative="1" as="geometry" />
        </mxCell>
        <mxCell id="onemKajRgYSs6eUbvzqO-19" value="choose dishes from the menu" style="endArrow=block;endFill=1;html=1;edgeStyle=orthogonalEdgeStyle;align=left;verticalAlign=top;rounded=0;exitX=1;exitY=1;exitDx=0;exitDy=-5;exitPerimeter=0;entryX=0;entryY=0;entryDx=0;entryDy=5;entryPerimeter=0;" parent="1" source="onemKajRgYSs6eUbvzqO-74" target="onemKajRgYSs6eUbvzqO-75" edge="1">
          <mxGeometry x="-0.8616" y="30" relative="1" as="geometry">
            <mxPoint x="130" y="170" as="sourcePoint" />
            <mxPoint x="280" y="300" as="targetPoint" />
            <Array as="points" />
            <mxPoint as="offset" />
          </mxGeometry>
        </mxCell>
        <mxCell id="onemKajRgYSs6eUbvzqO-20" value="2" style="edgeLabel;resizable=0;html=1;align=left;verticalAlign=bottom;" parent="onemKajRgYSs6eUbvzqO-19" connectable="0" vertex="1">
          <mxGeometry x="-1" relative="1" as="geometry">
            <mxPoint x="1" as="offset" />
          </mxGeometry>
        </mxCell>
        <mxCell id="onemKajRgYSs6eUbvzqO-21" value="adding a dish to the cart" style="endArrow=block;endFill=1;html=1;edgeStyle=orthogonalEdgeStyle;align=left;verticalAlign=top;rounded=0;exitX=1;exitY=1;exitDx=0;exitDy=-5;exitPerimeter=0;entryX=0;entryY=0;entryDx=0;entryDy=5;entryPerimeter=0;" parent="1" source="onemKajRgYSs6eUbvzqO-75" target="onemKajRgYSs6eUbvzqO-76" edge="1">
          <mxGeometry x="-1" y="21" relative="1" as="geometry">
            <mxPoint x="310" y="340" as="sourcePoint" />
            <mxPoint x="470" y="340" as="targetPoint" />
            <Array as="points">
              <mxPoint x="295" y="195" />
            </Array>
            <mxPoint x="-6" y="-15" as="offset" />
          </mxGeometry>
        </mxCell>
        <mxCell id="onemKajRgYSs6eUbvzqO-22" value="3" style="edgeLabel;resizable=0;html=1;align=left;verticalAlign=bottom;" parent="onemKajRgYSs6eUbvzqO-21" connectable="0" vertex="1">
          <mxGeometry x="-1" relative="1" as="geometry" />
        </mxCell>
        <mxCell id="onemKajRgYSs6eUbvzqO-30" value="choosing the order receipt method" style="endArrow=block;endFill=1;html=1;edgeStyle=orthogonalEdgeStyle;align=left;verticalAlign=top;rounded=0;exitX=1;exitY=1;exitDx=0;exitDy=-5;exitPerimeter=0;" parent="1" source="onemKajRgYSs6eUbvzqO-76" target="onemKajRgYSs6eUbvzqO-8" edge="1">
          <mxGeometry x="-1" y="29" relative="1" as="geometry">
            <mxPoint x="560" y="290" as="sourcePoint" />
            <mxPoint x="720" y="290" as="targetPoint" />
            <Array as="points">
              <mxPoint x="495" y="220" />
            </Array>
            <mxPoint x="-14" y="-25" as="offset" />
          </mxGeometry>
        </mxCell>
        <mxCell id="onemKajRgYSs6eUbvzqO-31" value="4" style="edgeLabel;resizable=0;html=1;align=left;verticalAlign=bottom;" parent="onemKajRgYSs6eUbvzqO-30" connectable="0" vertex="1">
          <mxGeometry x="-1" relative="1" as="geometry" />
        </mxCell>
        <mxCell id="onemKajRgYSs6eUbvzqO-39" value="order verification" style="shape=umlLifeline;perimeter=lifelinePerimeter;whiteSpace=wrap;html=1;container=1;dropTarget=0;collapsible=0;recursiveResize=0;outlineConnect=0;portConstraint=eastwest;newEdgeStyle={&quot;curved&quot;:0,&quot;rounded&quot;:0};" parent="1" vertex="1">
          <mxGeometry x="810" y="70" width="100" height="320" as="geometry" />
        </mxCell>
        <mxCell id="onemKajRgYSs6eUbvzqO-68" value="" style="html=1;points=[[0,0,0,0,5],[0,1,0,0,-5],[1,0,0,0,5],[1,1,0,0,-5]];perimeter=orthogonalPerimeter;outlineConnect=0;targetShapes=umlLifeline;portConstraint=eastwest;newEdgeStyle={&quot;curved&quot;:0,&quot;rounded&quot;:0};" parent="onemKajRgYSs6eUbvzqO-39" vertex="1">
          <mxGeometry x="45" y="190" width="10" height="80" as="geometry" />
        </mxCell>
        <mxCell id="onemKajRgYSs6eUbvzqO-69" value="" style="html=1;points=[[0,0,0,0,5],[0,1,0,0,-5],[1,0,0,0,5],[1,1,0,0,-5]];perimeter=orthogonalPerimeter;outlineConnect=0;targetShapes=umlLifeline;portConstraint=eastwest;newEdgeStyle={&quot;curved&quot;:0,&quot;rounded&quot;:0};" parent="onemKajRgYSs6eUbvzqO-39" vertex="1">
          <mxGeometry x="50" y="220" width="10" height="40" as="geometry" />
        </mxCell>
        <mxCell id="onemKajRgYSs6eUbvzqO-70" value="6 сохранить детали заказа&amp;nbsp;" style="html=1;align=left;spacingLeft=2;endArrow=block;rounded=0;edgeStyle=orthogonalEdgeStyle;curved=0;rounded=0;" parent="onemKajRgYSs6eUbvzqO-39" target="onemKajRgYSs6eUbvzqO-69" edge="1">
          <mxGeometry relative="1" as="geometry">
            <mxPoint x="55" y="200" as="sourcePoint" />
            <Array as="points">
              <mxPoint x="85" y="230" />
            </Array>
          </mxGeometry>
        </mxCell>
        <mxCell id="onemKajRgYSs6eUbvzqO-40" value="creating an order" style="endArrow=block;endFill=1;html=1;edgeStyle=orthogonalEdgeStyle;align=left;verticalAlign=top;rounded=0;entryX=0;entryY=0;entryDx=0;entryDy=5;entryPerimeter=0;" parent="1" source="onemKajRgYSs6eUbvzqO-1" target="onemKajRgYSs6eUbvzqO-68" edge="1">
          <mxGeometry x="-0.8808" y="30" relative="1" as="geometry">
            <mxPoint x="610" y="330" as="sourcePoint" />
            <mxPoint x="810" y="260" as="targetPoint" />
            <Array as="points">
              <mxPoint x="370" y="265" />
              <mxPoint x="370" y="265" />
            </Array>
            <mxPoint as="offset" />
          </mxGeometry>
        </mxCell>
        <mxCell id="onemKajRgYSs6eUbvzqO-41" value="5" style="edgeLabel;resizable=0;html=1;align=left;verticalAlign=bottom;" parent="onemKajRgYSs6eUbvzqO-40" connectable="0" vertex="1">
          <mxGeometry x="-1" relative="1" as="geometry" />
        </mxCell>
        <mxCell id="onemKajRgYSs6eUbvzqO-44" value="check payment" style="shape=umlLifeline;perimeter=lifelinePerimeter;whiteSpace=wrap;html=1;container=1;dropTarget=0;collapsible=0;recursiveResize=0;outlineConnect=0;portConstraint=eastwest;newEdgeStyle={&quot;curved&quot;:0,&quot;rounded&quot;:0};" parent="1" vertex="1">
          <mxGeometry x="1200" y="65" width="100" height="430" as="geometry" />
        </mxCell>
        <mxCell id="onemKajRgYSs6eUbvzqO-80" value="" style="html=1;points=[[0,0,0,0,5],[0,1,0,0,-5],[1,0,0,0,5],[1,1,0,0,-5]];perimeter=orthogonalPerimeter;outlineConnect=0;targetShapes=umlLifeline;portConstraint=eastwest;newEdgeStyle={&quot;curved&quot;:0,&quot;rounded&quot;:0};" parent="onemKajRgYSs6eUbvzqO-44" vertex="1">
          <mxGeometry x="45" y="260" width="10" height="50" as="geometry" />
        </mxCell>
        <mxCell id="onemKajRgYSs6eUbvzqO-45" value="8 checking the order payment" style="endArrow=block;endFill=1;html=1;edgeStyle=orthogonalEdgeStyle;align=left;verticalAlign=top;rounded=0;" parent="1" target="onemKajRgYSs6eUbvzqO-44" edge="1">
          <mxGeometry x="-0.7279" y="30" relative="1" as="geometry">
            <mxPoint x="1030" y="320.0175438596491" as="sourcePoint" />
            <mxPoint x="1385" y="325" as="targetPoint" />
            <Array as="points">
              <mxPoint x="1191" y="321" />
            </Array>
            <mxPoint as="offset" />
          </mxGeometry>
        </mxCell>
        <mxCell id="onemKajRgYSs6eUbvzqO-47" value="9 printing a receipt" style="endArrow=block;endFill=1;html=1;edgeStyle=orthogonalEdgeStyle;align=left;verticalAlign=top;rounded=0;" parent="1" source="onemKajRgYSs6eUbvzqO-71" target="onemKajRgYSs6eUbvzqO-16" edge="1">
          <mxGeometry x="-0.8718" y="30" relative="1" as="geometry">
            <mxPoint x="980" y="380" as="sourcePoint" />
            <mxPoint x="1140" y="380" as="targetPoint" />
            <Array as="points">
              <mxPoint x="1130" y="390" />
              <mxPoint x="1130" y="390" />
            </Array>
            <mxPoint as="offset" />
          </mxGeometry>
        </mxCell>
        <mxCell id="onemKajRgYSs6eUbvzqO-49" value="Order Management Manager" style="shape=umlLifeline;perimeter=lifelinePerimeter;whiteSpace=wrap;html=1;container=1;dropTarget=0;collapsible=0;recursiveResize=0;outlineConnect=0;portConstraint=eastwest;newEdgeStyle={&quot;curved&quot;:0,&quot;rounded&quot;:0};" parent="1" vertex="1">
          <mxGeometry x="980" y="70" width="110" height="420" as="geometry" />
        </mxCell>
        <mxCell id="onemKajRgYSs6eUbvzqO-71" value="" style="html=1;points=[[0,0,0,0,5],[0,1,0,0,-5],[1,0,0,0,5],[1,1,0,0,-5]];perimeter=orthogonalPerimeter;outlineConnect=0;targetShapes=umlLifeline;portConstraint=eastwest;newEdgeStyle={&quot;curved&quot;:0,&quot;rounded&quot;:0};" parent="onemKajRgYSs6eUbvzqO-49" vertex="1">
          <mxGeometry x="50" y="250" width="10" height="80" as="geometry" />
        </mxCell>
        <mxCell id="onemKajRgYSs6eUbvzqO-72" value="оформление заказа" style="endArrow=block;endFill=1;html=1;edgeStyle=orthogonalEdgeStyle;align=left;verticalAlign=top;rounded=0;entryX=0;entryY=0;entryDx=0;entryDy=5;entryPerimeter=0;exitX=1;exitY=1;exitDx=0;exitDy=-5;exitPerimeter=0;" parent="1" source="onemKajRgYSs6eUbvzqO-69" target="onemKajRgYSs6eUbvzqO-71" edge="1">
          <mxGeometry x="-0.8751" y="25" relative="1" as="geometry">
            <mxPoint x="860" y="450" as="sourcePoint" />
            <mxPoint x="1020" y="450" as="targetPoint" />
            <Array as="points">
              <mxPoint x="1030" y="325" />
            </Array>
            <mxPoint as="offset" />
          </mxGeometry>
        </mxCell>
        <mxCell id="onemKajRgYSs6eUbvzqO-73" value="7" style="edgeLabel;resizable=0;html=1;align=left;verticalAlign=bottom;" parent="onemKajRgYSs6eUbvzqO-72" connectable="0" vertex="1">
          <mxGeometry x="-1" relative="1" as="geometry" />
        </mxCell>
      </root>
    </mxGraphModel>
  </diagram>
</mxfile>
